<?xml version="1.0" standalone="no"?>
<!DOCTYPE svg PUBLIC "-//W3C//DTD SVG 20010904//EN"
 "http://www.w3.org/TR/2001/REC-SVG-20010904/DTD/svg10.dtd">
<svg version="1.0" xmlns="http://www.w3.org/2000/svg"
 width="535.000000pt" height="535.000000pt" viewBox="0 0 535.000000 535.000000"
 preserveAspectRatio="xMidYMid meet">
<metadata>
Created by potrace 1.14, written by Peter Selinger 2001-2017
</metadata>
<g transform="translate(0.000000,535.000000) scale(0.100000,-0.100000)"
fill="#000000" stroke="none">
<path d="M2285 5254 c-74 -11 -160 -40 -229 -77 -41 -22 -154 -126 -161 -148
-5 -14 -13 -18 -31 -15 -13 3 -26 0 -30 -5 -3 -6 -12 -8 -20 -5 -7 3 -16 1
-19 -3 -2 -5 -17 -12 -32 -16 -93 -23 -222 -116 -298 -215 -25 -32 -45 -63
-45 -68 0 -5 -7 -15 -15 -22 -8 -6 -14 -15 -13 -18 1 -4 -6 -22 -15 -39 -10
-18 -17 -35 -17 -38 0 -3 0 -9 0 -14 0 -5 -24 -22 -52 -39 -73 -41 -152 -114
-201 -186 -23 -34 -42 -63 -42 -66 0 -3 -4 -11 -8 -17 -5 -7 -5 -13 0 -13 4 0
2 -4 -4 -8 -7 -4 -14 -17 -16 -27 -1 -11 -6 -26 -10 -32 -5 -7 -5 -17 -2 -23
3 -5 1 -10 -5 -10 -7 0 -10 -6 -7 -14 3 -8 3 -17 -1 -21 -4 -4 -7 -50 -8 -104
l-1 -97 -56 -70 c-85 -105 -117 -179 -134 -313 -7 -57 -7 -54 2 -121 4 -30 7
-66 8 -80 1 -14 6 -28 12 -32 6 -4 0 -28 -14 -60 -13 -29 -23 -63 -22 -75 0
-13 -3 -23 -7 -23 -8 0 -10 -16 -13 -136 -1 -50 0 -95 3 -100 3 -5 9 -26 12
-47 3 -21 13 -51 21 -67 8 -16 15 -34 15 -39 0 -24 93 -161 147 -216 77 -78
103 -98 175 -132 l60 -28 -6 -80 c-14 -184 61 -415 173 -532 12 -13 19 -23 16
-23 -7 0 60 -65 115 -113 18 -15 35 -27 39 -27 4 0 16 -8 27 -18 22 -19 111
-66 128 -67 6 -1 25 -7 41 -14 17 -7 41 -15 55 -17 32 -5 65 -12 65 -14 0 -2
31 -8 64 -13 10 -1 29 -10 43 -19 14 -9 33 -18 44 -20 10 -2 21 -6 24 -10 5
-6 25 -12 95 -24 20 -4 35 -1 42 8 14 17 118 215 108 206 -9 -9 -36 24 -65 81
-22 42 -33 138 -17 148 4 2 5 8 2 13 -3 4 2 10 10 14 8 3 15 11 15 19 0 15 49
65 56 57 2 -3 21 10 42 28 32 28 38 38 34 63 -5 33 -57 82 -91 84 -12 1 -21
-1 -21 -5 0 -3 -17 -12 -37 -19 -106 -39 -201 -208 -190 -337 l5 -54 -58 0
c-81 0 -260 62 -283 98 -4 6 -13 12 -18 12 -16 0 -139 132 -139 149 0 5 -3 11
-7 13 -10 4 -53 89 -58 114 -2 10 -4 21 -5 24 -1 3 -2 8 -1 12 0 5 -3 8 -7 8
-11 0 -15 102 -9 205 4 73 62 83 122 20 42 -43 106 -85 131 -85 8 0 14 -4 14
-8 0 -10 -3 -10 117 -15 88 -4 93 -4 108 19 8 13 15 43 15 67 0 62 -20 77
-103 77 -64 0 -157 29 -157 49 0 4 9 17 19 28 11 12 17 23 15 26 -3 3 0 15 6
27 10 18 7 25 -24 56 -24 24 -41 33 -58 30 -12 -3 -23 -5 -23 -6 0 -1 -9 -3
-20 -5 -11 -2 -25 -12 -33 -22 -13 -17 -14 -17 -27 2 -8 11 -19 25 -24 31 -34
40 -26 254 9 254 6 0 10 6 10 13 0 14 47 45 83 54 12 3 60 6 106 7 66 2 86 6
96 20 14 18 15 113 2 134 -5 8 -33 12 -77 12 -83 0 -112 10 -151 52 -27 30
-29 38 -29 110 0 68 -3 80 -25 104 -34 37 -76 36 -115 -1 -16 -15 -27 -32 -24
-36 2 -4 0 -10 -5 -14 -13 -7 -6 -120 9 -160 6 -16 11 -32 10 -34 -1 -2 3 -7
8 -10 5 -3 16 -20 25 -37 15 -30 15 -31 -22 -67 -21 -20 -52 -64 -70 -97 -27
-51 -32 -71 -33 -132 -1 -68 5 -143 13 -178 3 -9 -2 -14 -11 -12 -8 2 -23 5
-32 7 -35 7 -90 38 -116 66 -15 16 -33 29 -39 29 -7 0 -12 3 -11 8 2 4 -6 18
-17 30 -11 13 -28 33 -38 44 -9 12 -17 27 -17 35 0 7 -5 13 -10 13 -6 0 -9 3
-9 8 1 4 0 9 -1 12 -3 8 -11 44 -14 60 -1 9 -5 20 -9 26 -10 18 0 174 14 190
6 8 8 14 3 14 -4 0 -3 5 3 11 9 9 16 8 28 -5 18 -17 95 -23 95 -6 0 6 6 10 14
10 8 0 19 15 25 33 16 47 -1 88 -45 112 -80 43 -111 96 -108 185 1 30 2 56 4
58 1 1 3 5 5 10 3 12 16 46 32 80 13 31 57 71 78 73 6 0 16 5 22 11 18 15 76
12 109 -5 36 -19 59 -46 68 -80 20 -81 114 -87 155 -9 20 38 -14 124 -71 182
-55 55 -90 75 -148 85 -22 4 -40 11 -40 16 0 4 -7 6 -15 3 -12 -5 -15 5 -15
57 1 123 41 229 115 300 45 44 125 95 125 81 0 -4 4 -1 9 6 4 7 23 15 41 17
18 3 37 8 40 12 4 5 14 39 24 78 9 38 25 88 36 110 23 48 105 147 114 138 3
-4 6 -1 6 6 0 10 29 27 53 30 4 0 21 8 37 16 17 9 35 13 40 10 5 -3 12 0 15 6
4 5 23 10 44 9 89 -4 100 -1 107 27 8 31 13 37 74 102 38 40 114 93 143 99 4
1 8 3 10 3 3 2 79 9 107 10 45 1 105 -8 126 -19 12 -6 23 -10 25 -8 12 12 116
-85 139 -129 l25 -49 3 -489 3 -489 -32 -56 c-18 -32 -48 -86 -67 -122 -19
-36 -51 -94 -70 -130 -20 -36 -37 -69 -37 -73 0 -4 -6 -12 -14 -16 -7 -5 -11
-13 -7 -19 3 -6 2 -12 -3 -14 -5 -1 -27 -37 -49 -78 -139 -264 -184 -346 -204
-370 -9 -10 -14 -21 -11 -24 4 -3 0 -14 -8 -23 -8 -10 -21 -31 -29 -48 -8 -16
-19 -33 -25 -37 -5 -4 -7 -8 -3 -8 4 0 -13 -34 -38 -76 -24 -41 -45 -81 -47
-87 -1 -7 -4 -14 -7 -17 -9 -9 -40 -68 -40 -77 0 -4 153 -8 340 -8 l340 0 -5
-35 c-14 -90 -38 -221 -51 -284 -8 -38 -14 -81 -14 -97 0 -16 -4 -29 -10 -29
-5 0 -7 -6 -4 -14 3 -8 0 -34 -7 -57 -6 -24 -13 -60 -14 -80 -1 -20 -5 -41
-10 -48 -4 -7 -8 -37 -10 -67 -2 -30 -7 -60 -13 -67 -5 -6 -8 -22 -6 -35 2
-12 0 -22 -4 -22 -5 0 -8 -15 -7 -32 1 -18 0 -37 -3 -43 -4 -5 -7 -16 -8 -25
-1 -8 -5 -28 -8 -45 -4 -16 -9 -43 -11 -60 -3 -32 -10 -63 -21 -105 -3 -14 -7
-38 -9 -55 -1 -16 -3 -32 -4 -35 -7 -16 -28 -126 -30 -155 -1 -6 -110 -10
-309 -9 -169 1 -312 -2 -319 -5 -8 -4 0 -20 25 -47 20 -23 71 -79 112 -125 41
-46 96 -106 122 -135 27 -28 45 -54 41 -57 -3 -4 0 -7 8 -8 8 0 37 -27 64 -60
28 -33 66 -78 86 -101 l35 -40 19 29 c11 15 30 48 43 73 13 25 45 83 70 130
25 47 59 112 75 145 17 33 34 61 38 63 5 2 9 10 9 17 0 8 14 37 30 65 17 28
30 53 30 55 0 3 24 49 54 102 29 54 72 134 96 178 23 44 46 86 52 93 6 6 8 12
4 12 -3 0 5 18 19 40 14 22 23 40 19 40 -3 0 2 7 10 16 9 8 16 22 16 30 0 8 4
14 9 14 5 0 11 8 14 18 3 9 23 49 44 87 22 39 68 124 103 190 35 66 74 137 87
157 13 21 23 42 23 48 0 6 5 8 10 5 6 -3 10 2 10 12 0 10 9 31 19 47 11 17 18
33 15 38 -3 4 -1 8 4 8 6 0 25 30 43 68 19 37 36 69 39 72 3 3 25 43 49 90 24
47 60 114 79 150 19 36 46 88 60 115 14 28 31 57 38 65 6 8 15 26 19 40 4 14
11 27 14 30 6 5 81 149 81 156 0 2 -156 4 -346 4 l-346 0 6 33 c3 17 10 70 16
117 6 47 14 108 19 135 5 28 15 88 21 135 10 77 20 145 51 340 6 36 13 72 16
80 3 8 5 24 4 36 -1 11 3 41 8 66 6 25 13 70 16 100 5 45 15 109 20 128 6 24
19 103 21 135 1 22 6 51 9 65 4 14 8 39 10 55 2 17 4 30 5 30 1 0 3 23 5 50 1
28 4 50 5 50 1 0 4 13 6 29 3 27 2 28 -16 11 -11 -10 -17 -21 -15 -25 3 -5 1
-10 -4 -12 -5 -1 -37 -52 -71 -112 -98 -170 -150 -251 -151 -236 -4 87 -1 462
4 467 4 3 7 20 7 37 0 41 48 115 103 161 25 21 47 36 49 34 3 -2 11 1 19 8 16
13 82 25 139 25 60 0 106 -9 157 -33 26 -12 50 -22 53 -22 3 0 28 -24 57 -53
28 -30 49 -54 46 -54 -2 0 5 -15 16 -33 11 -19 18 -37 14 -40 -3 -4 2 -7 13
-8 111 -3 159 -10 193 -29 12 -6 21 -8 21 -5 0 12 84 -49 113 -82 62 -70 112
-175 106 -220 -7 -47 15 -70 76 -80 17 -3 38 -12 49 -21 10 -10 20 -16 22 -14
13 8 30 -5 89 -64 36 -36 63 -69 60 -74 -3 -4 2 -13 10 -20 35 -29 74 -276 43
-277 -85 -3 -164 -38 -216 -98 -60 -68 -79 -126 -58 -176 21 -50 45 -60 118
-50 10 1 49 77 43 83 -8 8 51 58 73 63 12 2 26 6 31 10 17 10 95 -27 124 -59
49 -54 72 -114 71 -186 0 -36 -6 -75 -13 -87 -6 -13 -9 -23 -5 -23 4 0 -7 -13
-24 -30 -18 -16 -37 -30 -42 -30 -6 0 -24 -14 -40 -30 -38 -39 -39 -78 -4
-119 29 -34 74 -42 109 -17 17 12 22 11 35 -2 8 -9 14 -18 13 -19 -2 -2 -3 -4
-2 -5 2 -9 11 -96 11 -108 -1 -49 -10 -108 -20 -125 -6 -11 -20 -40 -31 -65
-40 -88 -147 -185 -238 -217 -38 -13 -46 -8 -31 20 17 32 23 109 15 182 -4 30
-25 88 -26 71 -1 -6 -7 -1 -15 9 -21 29 -76 26 -101 -5 -16 -19 -21 -46 -26
-127 -5 -81 -11 -110 -30 -140 -29 -50 -29 -49 -37 -37 -14 22 -73 45 -95 38
-56 -17 -80 -88 -45 -134 14 -17 16 -26 7 -29 -7 -2 -28 -14 -47 -27 -29 -20
-48 -24 -107 -24 -87 0 -108 -16 -110 -83 -1 -65 25 -83 122 -81 84 1 92 3
168 39 47 23 105 69 122 99 4 7 22 16 40 19 31 6 33 5 44 -36 31 -109 -4 -286
-79 -396 -20 -29 -45 -65 -54 -80 -10 -14 -18 -23 -18 -20 0 4 -20 -12 -45
-36 -42 -39 -127 -90 -150 -90 -5 0 -12 -3 -15 -6 -16 -18 -132 -39 -245 -44
l-130 -6 -25 -31 c-31 -39 -120 -128 -120 -120 0 3 -8 -4 -17 -15 -10 -10 -55
-41 -101 -68 -46 -27 -85 -52 -87 -56 -14 -22 342 -19 420 4 67 20 119 40 125
49 5 6 39 15 85 22 11 2 20 4 20 6 0 1 11 4 63 13 9 2 42 12 72 22 30 10 57
17 59 16 2 -2 7 2 11 9 4 6 13 12 21 14 21 3 121 62 149 88 63 56 138 128 133
128 -2 0 8 17 24 38 30 38 67 93 69 102 0 3 12 30 26 60 44 96 61 188 56 309
l-3 108 30 13 c55 24 140 87 204 151 126 127 194 290 194 464 0 98 -22 202
-54 253 -9 15 -9 29 5 67 22 65 22 227 0 303 -28 97 -78 180 -157 265 -18 21
-25 37 -21 50 11 35 1 181 -14 200 -5 7 -10 20 -11 30 -3 40 -5 47 -13 47 -4
0 -8 7 -8 15 0 19 -29 77 -42 86 -5 3 -10 14 -12 23 -5 35 -181 196 -213 196
-16 0 -54 41 -48 51 4 5 1 9 -5 9 -6 0 -9 3 -6 8 2 4 -9 30 -25 57 -16 28 -33
60 -38 72 -22 50 -155 170 -231 209 -41 21 -79 37 -83 36 -4 -1 -18 3 -30 10
-12 7 -26 11 -31 10 -4 -2 -14 2 -20 8 -7 5 -15 7 -19 4 -8 -8 -57 26 -57 40
0 10 -18 27 -101 98 -23 19 -103 58 -174 84 -40 15 -77 19 -190 19 -131 -1
-145 -3 -208 -29 -64 -27 -153 -86 -205 -135 l-23 -22 -55 50 c-123 113 -295
162 -469 135z"/>
<path d="M2217 4687 c-14 -12 -31 -41 -38 -65 -16 -56 -49 -71 -162 -71 -128
0 -157 -17 -152 -88 3 -43 17 -65 45 -72 8 -2 65 -4 126 -5 120 -1 132 -6 192
-67 17 -18 32 -29 32 -23 0 5 4 3 9 -5 12 -19 64 2 86 35 27 42 19 82 -25 127
l-41 40 25 26 c47 50 43 143 -7 170 -39 20 -63 20 -90 -2z"/>
<path d="M3350 4699 c0 -6 -4 -8 -9 -4 -13 7 -51 -34 -52 -57 -1 -10 -2 -24
-3 -30 -3 -18 23 -80 41 -100 14 -15 12 -20 -20 -48 -66 -58 -69 -133 -5 -166
17 -9 37 -12 46 -8 10 4 21 8 25 8 5 1 22 19 38 40 16 22 29 36 29 32 0 -3 10
-1 23 6 13 7 65 13 127 13 58 1 114 5 126 9 38 12 57 83 30 118 -20 27 -64 39
-149 39 -82 0 -127 13 -127 36 0 7 -4 13 -8 13 -4 0 -13 20 -20 46 -7 25 -16
43 -21 39 -5 -3 -11 -1 -13 4 -4 13 -58 22 -58 10z"/>
<path d="M1599 4103 c-35 -5 -100 -62 -101 -88 -3 -42 13 -76 40 -87 43 -18
54 -18 86 0 17 9 34 17 39 18 4 1 8 3 10 4 8 8 97 4 97 -4 0 -5 3 -6 6 -3 10
9 56 -21 78 -50 14 -20 20 -47 23 -124 4 -119 24 -171 84 -228 29 -27 60 -44
101 -56 56 -15 63 -15 115 1 30 10 57 23 60 31 3 7 11 13 18 13 37 0 72 125
42 154 -45 45 -89 46 -130 2 -44 -47 -71 -51 -100 -16 -21 25 -24 38 -24 122
-1 74 -5 106 -21 142 -22 50 -112 146 -136 146 -8 0 -16 6 -18 12 -4 12 -208
21 -269 11z"/>
<path d="M3790 4101 c-73 -23 -132 -74 -174 -154 -14 -26 -22 -55 -19 -63 3
-7 1 -14 -4 -14 -5 0 -8 -37 -8 -82 1 -46 -3 -93 -8 -104 -19 -44 -90 -53
-102 -13 -11 33 -50 52 -91 45 -29 -6 -39 -14 -54 -48 -21 -48 -14 -73 34
-126 38 -41 88 -63 142 -64 52 0 124 22 131 39 3 7 9 13 14 13 14 0 56 47 74
82 10 21 19 72 24 140 6 89 11 112 31 142 14 19 34 38 45 41 11 4 27 9 35 12
36 11 79 7 131 -14 47 -19 60 -21 87 -11 33 13 52 44 52 85 0 34 -58 89 -102
96 -47 8 -208 7 -238 -2z"/>
<path d="M4120 3403 c-42 -16 -50 -34 -50 -120 0 -49 -4 -83 -10 -83 -5 0 -10
-6 -10 -13 0 -14 -35 -49 -68 -66 -12 -6 -55 -11 -97 -11 -72 0 -76 -1 -85
-26 -14 -37 -12 -96 4 -120 12 -17 24 -19 103 -18 48 1 89 3 91 4 1 1 7 4 12
5 6 1 12 4 15 5 3 1 8 3 13 4 30 5 120 88 150 139 9 15 20 27 25 27 4 0 5 4 2
10 -3 5 0 20 6 32 20 36 19 137 -2 179 -22 44 -62 66 -99 52z"/>
<path d="M3325 2220 c-52 -54 -25 -176 56 -258 33 -34 92 -79 97 -74 1 1 3 2
5 1 1 0 10 -2 20 -4 10 -2 26 -7 35 -11 23 -10 166 -12 172 -2 3 4 17 9 30 11
13 2 33 15 43 29 28 38 25 77 -9 106 -25 22 -33 24 -94 18 -138 -14 -206 21
-216 110 -6 53 -29 98 -44 89 -6 -4 -10 -2 -10 3 0 20 -61 7 -85 -18z"/>
<path d="M2789 1051 c-46 -57 -89 -109 -94 -115 -6 -6 -44 -54 -85 -106 -41
-52 -79 -98 -85 -102 -5 -4 -6 -8 -1 -8 4 0 -2 -9 -15 -20 -13 -10 -20 -19
-15 -20 4 0 -2 -9 -15 -20 -13 -10 -21 -19 -18 -20 4 0 -15 -23 -42 -52 -27
-29 -49 -57 -49 -63 1 -15 17 -35 127 -153 88 -94 201 -221 273 -304 13 -16
29 -28 35 -28 11 0 48 38 206 215 98 110 114 127 161 176 27 27 46 49 44 49
-2 0 10 15 28 33 17 17 59 64 94 104 35 39 73 83 85 96 12 13 40 44 61 68 61
68 187 207 231 254 51 54 90 103 90 113 0 4 -210 7 -466 8 l-466 0 -84 -105z"/>
</g>
</svg>
